# Blender v2.93.1 OBJ File: ''
# www.blender.org
mtllib wall_03.mtl
o Cube_Cube.004
v -3.000000 0.000000 0.100000
v -3.000000 1.700000 0.100000
v -3.000000 0.000000 -0.100000
v -3.000000 1.700000 -0.100000
v -1.000000 0.000000 0.100000
v -1.000000 1.700000 0.100000
v -1.000000 0.000000 -0.100000
v -1.000000 1.700000 -0.100000
v -2.920321 1.410410 0.098555
v -2.920321 1.495409 0.098555
v -2.752595 1.410410 0.098555
v -2.752595 1.495409 0.098555
v -2.920321 1.410410 0.112419
v -2.911996 1.418735 0.120743
v -2.911996 1.487084 0.120743
v -2.920321 1.495409 0.112419
v -2.752595 1.495409 0.112419
v -2.760920 1.487084 0.120743
v -2.760920 1.418735 0.120743
v -2.752595 1.410410 0.112419
v -1.539218 1.406975 0.098094
v -1.539218 1.495178 0.098094
v -1.365167 1.406975 0.098094
v -1.365167 1.495178 0.098094
v -1.539218 1.406975 0.112481
v -1.530579 1.415613 0.121120
v -1.530579 1.486540 0.121120
v -1.539218 1.495178 0.112481
v -1.365167 1.495178 0.112481
v -1.373806 1.486540 0.121120
v -1.373806 1.415613 0.121120
v -1.365167 1.406975 0.112481
v -1.794540 0.418287 0.097964
v -1.794540 0.512007 0.097964
v -1.618698 0.418287 0.097964
v -1.618698 0.512007 0.097964
v -1.794540 0.418287 0.112499
v -1.785813 0.427466 0.121227
v -1.785813 0.502828 0.121227
v -1.794540 0.512007 0.112499
v -1.618698 0.512007 0.112499
v -1.627425 0.502828 0.121227
v -1.627425 0.427466 0.121227
v -1.618698 0.418287 0.112499
v -1.364896 1.069843 -0.089278
v -1.364896 1.159238 -0.089278
v -1.541296 1.069843 -0.089278
v -1.541296 1.159238 -0.089278
v -1.364896 1.069843 -0.103859
v -1.373651 1.078598 -0.112614
v -1.373651 1.150482 -0.112614
v -1.364896 1.159238 -0.103859
v -1.541296 1.159238 -0.103859
v -1.532540 1.150482 -0.112614
v -1.532540 1.078598 -0.112614
v -1.541296 1.069843 -0.103859
v -2.744900 1.069524 -0.089278
v -2.744900 1.158918 -0.089278
v -2.921300 1.069524 -0.089278
v -2.921300 1.158918 -0.089278
v -2.744900 1.069524 -0.103859
v -2.753655 1.078279 -0.112614
v -2.753655 1.150163 -0.112614
v -2.744900 1.158918 -0.103859
v -2.921300 1.158918 -0.103859
v -2.912545 1.150163 -0.112614
v -2.912545 1.078279 -0.112614
v -2.921300 1.069524 -0.103859
v -2.058645 0.377800 -0.089058
v -2.058645 0.468721 -0.089058
v -2.238057 0.377800 -0.089058
v -2.238057 0.468721 -0.089058
v -2.058645 0.377800 -0.103889
v -2.067550 0.386705 -0.112793
v -2.067550 0.459816 -0.112793
v -2.058645 0.468721 -0.103889
v -2.238057 0.468721 -0.103889
v -2.229152 0.459816 -0.112793
v -2.229152 0.386705 -0.112793
v -2.238057 0.377800 -0.103889
v -2.225759 0.716363 0.098303
v -2.225759 0.803113 0.098303
v -2.054576 0.716363 0.098303
v -2.054576 0.803113 0.098303
v -2.225759 0.716363 0.112453
v -2.217263 0.724859 0.120949
v -2.217263 0.794617 0.120949
v -2.225759 0.803113 0.112453
v -2.054576 0.803113 0.112453
v -2.063072 0.794617 0.120949
v -2.063072 0.724859 0.120949
v -2.054576 0.716363 0.112453
vt -0.923215 2.432945
vt -1.212377 -0.024913
vt -0.923216 -0.024913
vt -0.923215 -2.771932
vt 1.968381 -0.314074
vt -0.923216 -0.314074
vt 2.257542 2.432943
vt 1.968381 -0.024914
vt 2.257543 -0.024914
vt 1.968382 2.432943
vt -0.923215 2.722105
vt 1.968382 2.722104
vt 0.215469 0.838616
vt 0.369697 0.825867
vt 0.369697 0.838616
vt 0.202979 0.742952
vt 0.215469 0.825868
vt 0.201971 0.825703
vt 0.370705 0.730367
vt 0.216476 0.743116
vt 0.216476 0.730367
vt 0.227682 0.753714
vt 0.358492 0.815269
vt 0.226338 0.814803
vt 0.370705 0.743116
vt 0.383195 0.826032
vt 0.384202 0.743280
vt 0.215469 0.838616
vt 0.369697 0.825867
vt 0.369697 0.838616
vt 0.202979 0.742952
vt 0.215469 0.825868
vt 0.201971 0.825703
vt 0.370705 0.730367
vt 0.216476 0.743116
vt 0.216476 0.730367
vt 0.227682 0.753714
vt 0.358492 0.815269
vt 0.226338 0.814803
vt 0.370705 0.743116
vt 0.383195 0.826032
vt 0.384202 0.743280
vt 0.215469 0.838616
vt 0.369697 0.825867
vt 0.369697 0.838616
vt 0.202979 0.742952
vt 0.215469 0.825868
vt 0.201971 0.825703
vt 0.370705 0.730367
vt 0.216476 0.743116
vt 0.216476 0.730367
vt 0.227682 0.753714
vt 0.358492 0.815269
vt 0.226338 0.814803
vt 0.359835 0.754181
vt 0.370705 0.743116
vt 0.383195 0.826032
vt 0.384202 0.743280
vt 0.215469 0.838616
vt 0.369697 0.825867
vt 0.369697 0.838616
vt 0.202979 0.742952
vt 0.215469 0.825868
vt 0.201971 0.825703
vt 0.370705 0.730367
vt 0.216476 0.743116
vt 0.216476 0.730367
vt 0.227682 0.753714
vt 0.358492 0.815269
vt 0.226338 0.814803
vt 0.359835 0.754181
vt 0.370705 0.743116
vt 0.383195 0.826032
vt 0.384202 0.743280
vt 0.369697 0.838616
vt 0.215469 0.825868
vt 0.369697 0.825867
vt 0.202979 0.742952
vt 0.201971 0.825703
vt 0.370705 0.730367
vt 0.216476 0.743116
vt 0.216476 0.730367
vt 0.227682 0.753714
vt 0.358492 0.815269
vt 0.226338 0.814803
vt 0.359835 0.754181
vt 0.370705 0.743116
vt 0.383195 0.826032
vt 0.384202 0.743280
vt 0.215469 0.838616
vt 0.369697 0.825867
vt 0.369697 0.838616
vt 0.202979 0.742952
vt 0.215469 0.825868
vt 0.201971 0.825703
vt 0.370705 0.730367
vt 0.216476 0.743116
vt 0.216476 0.730367
vt 0.227682 0.753714
vt 0.358492 0.815269
vt 0.226338 0.814803
vt 0.359835 0.754181
vt 0.370705 0.743116
vt 0.383195 0.826032
vt 0.384202 0.743280
vt 0.215469 0.838616
vt 0.369697 0.825867
vt 0.369697 0.838616
vt 0.202979 0.742952
vt 0.215469 0.825868
vt 0.201971 0.825703
vt 0.370705 0.730367
vt 0.216476 0.743116
vt 0.216476 0.730367
vt 0.227682 0.753714
vt 0.358492 0.815269
vt 0.226338 0.814803
vt 0.370705 0.743116
vt 0.359835 0.754181
vt 0.383195 0.826032
vt 0.384202 0.743280
vt -1.212374 2.432945
vt 1.968381 -2.771932
vt 0.359835 0.754181
vt 0.359835 0.754181
vt 0.215469 0.838616
vn -1.0000 0.0000 0.0000
vn 0.0000 0.0000 -1.0000
vn 1.0000 0.0000 0.0000
vn 0.0000 0.0000 1.0000
vn 0.0000 1.0000 0.0000
vn 0.0000 -1.0000 0.0000
vn -0.7071 0.0000 0.7071
vn 0.7071 0.0000 0.7071
vn 0.0000 -0.7071 0.7071
vn 0.0000 0.7071 0.7071
vn 0.0000 -0.6891 0.7247
vn 0.0000 0.6891 0.7247
vn 0.7071 0.0000 -0.7071
vn -0.7071 0.0000 -0.7071
vn -0.0000 -0.7071 -0.7071
vn -0.0000 0.7071 -0.7071
usemtl Материал
s off
f 2/1/1 3/2/1 1/3/1
f 4/4/2 7/5/2 3/6/2
f 8/7/3 5/8/3 7/9/3
f 6/10/4 1/3/4 5/8/4
f 4/11/5 6/10/5 8/12/5
f 11/13/6 13/14/6 9/15/6
f 12/16/3 20/17/3 11/18/3
f 10/19/5 17/20/5 12/21/5
f 18/22/4 14/23/4 19/24/4
f 14/23/7 16/25/7 13/14/7
f 19/24/8 17/20/8 18/22/8
f 20/17/9 14/23/9 13/14/9
f 16/25/10 18/22/10 17/20/10
f 9/26/1 16/25/1 10/27/1
f 23/28/6 25/29/6 21/30/6
f 24/31/3 32/32/3 23/33/3
f 22/34/5 29/35/5 24/36/5
f 30/37/4 26/38/4 31/39/4
f 26/38/7 28/40/7 25/29/7
f 31/39/8 29/35/8 30/37/8
f 25/29/9 31/39/9 26/38/9
f 28/40/10 30/37/10 29/35/10
f 21/41/1 28/40/1 22/42/1
f 35/43/6 37/44/6 33/45/6
f 36/46/3 44/47/3 35/48/3
f 34/49/5 41/50/5 36/51/5
f 42/52/4 38/53/4 43/54/4
f 39/55/7 37/44/7 38/53/7
f 43/54/8 41/50/8 42/52/8
f 37/44/11 43/54/11 38/53/11
f 40/56/12 42/52/12 41/50/12
f 33/57/1 40/56/1 34/58/1
f 47/59/6 49/60/6 45/61/6
f 48/62/1 56/63/1 47/64/1
f 46/65/5 53/66/5 48/67/5
f 54/68/2 50/69/2 55/70/2
f 51/71/13 49/60/13 50/69/13
f 55/70/14 53/66/14 54/68/14
f 49/60/15 55/70/15 50/69/15
f 52/72/16 54/68/16 53/66/16
f 45/73/3 52/72/3 46/74/3
f 57/75/6 68/76/6 61/77/6
f 60/78/1 68/76/1 59/79/1
f 58/80/5 65/81/5 60/82/5
f 66/83/2 62/84/2 67/85/2
f 63/86/13 61/77/13 62/84/13
f 66/83/14 68/76/14 65/81/14
f 68/76/15 62/84/15 61/77/15
f 64/87/16 66/83/16 65/81/16
f 57/88/3 64/87/3 58/89/3
f 71/90/6 73/91/6 69/92/6
f 72/93/1 80/94/1 71/95/1
f 70/96/5 77/97/5 72/98/5
f 78/99/2 74/100/2 79/101/2
f 75/102/13 73/91/13 74/100/13
f 79/101/14 77/97/14 78/99/14
f 73/91/15 79/101/15 74/100/15
f 76/103/16 78/99/16 77/97/16
f 69/104/3 76/103/3 70/105/3
f 83/106/6 85/107/6 81/108/6
f 84/109/3 92/110/3 83/111/3
f 82/112/5 89/113/5 84/114/5
f 90/115/4 86/116/4 91/117/4
f 86/116/7 88/118/7 85/107/7
f 91/117/8 89/113/8 90/115/8
f 92/110/9 86/116/9 85/107/9
f 89/113/10 87/119/10 90/115/10
f 81/120/1 88/118/1 82/121/1
f 2/1/1 4/122/1 3/2/1
f 4/4/2 8/123/2 7/5/2
f 8/7/3 6/10/3 5/8/3
f 6/10/4 2/1/4 1/3/4
f 4/11/5 2/1/5 6/10/5
f 11/13/6 20/17/6 13/14/6
f 12/16/3 17/20/3 20/17/3
f 10/19/5 16/25/5 17/20/5
f 18/22/4 15/124/4 14/23/4
f 14/23/7 15/124/7 16/25/7
f 19/24/8 20/17/8 17/20/8
f 20/17/9 19/24/9 14/23/9
f 16/25/10 15/124/10 18/22/10
f 9/26/1 13/14/1 16/25/1
f 23/28/6 32/32/6 25/29/6
f 24/31/3 29/35/3 32/32/3
f 22/34/5 28/40/5 29/35/5
f 30/37/4 27/125/4 26/38/4
f 26/38/7 27/125/7 28/40/7
f 31/39/8 32/32/8 29/35/8
f 25/29/9 32/32/9 31/39/9
f 28/40/10 27/125/10 30/37/10
f 21/41/1 25/29/1 28/40/1
f 35/43/6 44/47/6 37/44/6
f 36/46/3 41/50/3 44/47/3
f 34/49/5 40/56/5 41/50/5
f 42/52/4 39/55/4 38/53/4
f 39/55/7 40/56/7 37/44/7
f 43/54/8 44/47/8 41/50/8
f 37/44/11 44/47/11 43/54/11
f 40/56/12 39/55/12 42/52/12
f 33/57/1 37/44/1 40/56/1
f 47/59/6 56/63/6 49/60/6
f 48/62/1 53/66/1 56/63/1
f 46/65/5 52/72/5 53/66/5
f 54/68/2 51/71/2 50/69/2
f 51/71/13 52/72/13 49/60/13
f 55/70/14 56/63/14 53/66/14
f 49/60/15 56/63/15 55/70/15
f 52/72/16 51/71/16 54/68/16
f 45/73/3 49/60/3 52/72/3
f 57/75/6 59/126/6 68/76/6
f 60/78/1 65/81/1 68/76/1
f 58/80/5 64/87/5 65/81/5
f 66/83/2 63/86/2 62/84/2
f 63/86/13 64/87/13 61/77/13
f 66/83/14 67/85/14 68/76/14
f 68/76/15 67/85/15 62/84/15
f 64/87/16 63/86/16 66/83/16
f 57/88/3 61/77/3 64/87/3
f 71/90/6 80/94/6 73/91/6
f 72/93/1 77/97/1 80/94/1
f 70/96/5 76/103/5 77/97/5
f 78/99/2 75/102/2 74/100/2
f 75/102/13 76/103/13 73/91/13
f 79/101/14 80/94/14 77/97/14
f 73/91/15 80/94/15 79/101/15
f 76/103/16 75/102/16 78/99/16
f 69/104/3 73/91/3 76/103/3
f 83/106/6 92/110/6 85/107/6
f 84/109/3 89/113/3 92/110/3
f 82/112/5 88/118/5 89/113/5
f 90/115/4 87/119/4 86/116/4
f 86/116/7 87/119/7 88/118/7
f 91/117/8 92/110/8 89/113/8
f 92/110/9 91/117/9 86/116/9
f 89/113/10 88/118/10 87/119/10
f 81/120/1 85/107/1 88/118/1
